<?xml version="1.0" encoding="UTF-8" standalone="no"?>
<!-- Created with Inkscape (http://www.inkscape.org/) -->

<svg
   width="148.70982mm"
   height="83.550545mm"
   viewBox="0 0 148.70982 83.55054"
   version="1.1"
   id="svg8"
   inkscape:export-filename="White The Aros.png"
   inkscape:export-xdpi="1000"
   inkscape:export-ydpi="1000"
   inkscape:version="1.4.2 (f4327f4, 2025-05-13)"
   sodipodi:docname="The Aros Logo.svg"
   xml:space="preserve"
   xmlns:inkscape="http://www.inkscape.org/namespaces/inkscape"
   xmlns:sodipodi="http://sodipodi.sourceforge.net/DTD/sodipodi-0.dtd"
   xmlns="http://www.w3.org/2000/svg"
   xmlns:svg="http://www.w3.org/2000/svg"
   xmlns:rdf="http://www.w3.org/1999/02/22-rdf-syntax-ns#"
   xmlns:cc="http://creativecommons.org/ns#"
   xmlns:dc="http://purl.org/dc/elements/1.1/"><defs
     id="defs2" /><sodipodi:namedview
     id="base"
     pagecolor="#ffffff"
     bordercolor="#666666"
     borderopacity="1.0"
     inkscape:pageopacity="0.0"
     inkscape:pageshadow="2"
     inkscape:zoom="1.4"
     inkscape:cx="385.71429"
     inkscape:cy="275.71429"
     inkscape:document-units="mm"
     inkscape:current-layer="layer1"
     showgrid="false"
     fit-margin-top="0"
     fit-margin-left="0"
     fit-margin-right="0"
     fit-margin-bottom="0"
     inkscape:window-width="3840"
     inkscape:window-height="2054"
     inkscape:window-x="-11"
     inkscape:window-y="-11"
     inkscape:window-maximized="1"
     inkscape:showpageshadow="2"
     inkscape:pagecheckerboard="0"
     inkscape:deskcolor="#d1d1d1" /><metadata
     id="metadata5"><rdf:RDF><cc:Work
         rdf:about=""><dc:format>image/svg+xml</dc:format><dc:type
           rdf:resource="http://purl.org/dc/dcmitype/StillImage" /></cc:Work></rdf:RDF></metadata><g
     inkscape:label="Layer 1"
     inkscape:groupmode="layer"
     id="layer1"
     transform="translate(-81.881701,-194.58461)"><g
       id="g1"
       transform="matrix(0.70389025,0,0,0.70389025,36.811009,81.994414)"><path
         id="path866"
         style="color:#000000;font-style:normal;font-variant:normal;font-weight:normal;font-stretch:normal;font-size:58.9709px;line-height:1.25;font-family:VVDS_Praliner;-inkscape-font-specification:VVDS_Praliner;font-variant-ligatures:normal;font-variant-position:normal;font-variant-caps:normal;font-variant-numeric:normal;font-variant-alternates:normal;font-feature-settings:normal;text-indent:0;text-align:start;text-decoration:none;text-decoration-line:none;text-decoration-style:solid;text-decoration-color:#000000;letter-spacing:0px;word-spacing:0px;text-transform:none;writing-mode:lr-tb;direction:ltr;text-orientation:mixed;dominant-baseline:auto;baseline-shift:baseline;text-anchor:start;white-space:normal;shape-padding:0;clip-rule:nonzero;display:inline;overflow:visible;visibility:visible;opacity:1;isolation:auto;mix-blend-mode:normal;color-interpolation:sRGB;color-interpolation-filters:linearRGB;solid-color:#000000;solid-opacity:1;vector-effect:none;fill:#0a1628;fill-opacity:0.960784;fill-rule:nonzero;stroke:none;stroke-width:1.991;stroke-linecap:butt;stroke-linejoin:miter;stroke-miterlimit:4;stroke-dasharray:none;stroke-dashoffset:0;stroke-opacity:1;color-rendering:auto;image-rendering:auto;shape-rendering:auto;text-rendering:auto;enable-background:accumulate"
         d="m 86.806919,192.88997 -5.783203,14.69141 h 1.460938 10.068359 z m 28.917971,-11.08203 v 0.99414 14.38477 h 9.98046 c 1.64289,0 3.13748,-0.16922 4.48438,-0.52149 1.44493,-0.37304 2.75413,-1.15062 3.8789,-2.27539 l 0.002,-0.002 0.004,-0.004 c 1.20676,-1.22953 1.81055,-2.89603 1.81055,-4.78516 0,-1.88912 -0.60321,-3.56177 -1.80469,-4.80859 -1.12002,-1.18106 -2.438,-2.0004 -3.90234,-2.39648 -1.36827,-0.39329 -2.86022,-0.58594 -4.47266,-0.58594 z m 46.05858,-0.28906 c -2.2389,0 -4.24951,0.86489 -5.81445,2.49414 -1.5615,1.62567 -2.3789,3.66636 -2.3789,5.92969 0,2.31462 0.81287,4.38718 2.3789,6.01757 l 0.004,0.002 0.002,0.002 c 1.56614,1.60904 3.57288,2.46094 5.80859,2.46094 2.20202,0 4.19095,-0.85515 5.75391,-2.46094 l 0.002,-0.002 0.002,-0.002 c 1.56603,-1.63039 2.3789,-3.70295 2.3789,-6.01757 0,-2.26333 -0.8174,-4.30402 -2.3789,-5.92969 -1.56179,-1.62598 -3.55255,-2.49414 -5.75782,-2.49414 z m -74.980457,-5.29493 16.058597,41.86329 h -6.109378 l -2.246094,-5.67188 H 79.101841 l -2.246093,5.67188 h -6.109375 z m 74.980457,-0.25781 c 3.72996,0 6.819,1.32229 9.47852,4.07227 l 0.002,0.004 0.002,0.002 c 2.67418,2.72838 3.97851,5.95917 3.97851,9.89844 0,3.93926 -1.30489,7.1949 -3.98242,9.96289 l -0.002,0.002 c -2.66011,2.76868 -5.74821,4.09961 -9.47657,4.09961 -3.76909,0 -6.88426,-1.33285 -9.5625,-4.10156 -2.65761,-2.76703 -3.95312,-6.02307 -3.95312,-9.96289 0,-3.9408 1.29363,-7.17255 3.94922,-9.9004 2.67765,-2.75001 5.79572,-4.07617 9.5664,-4.07617 z m -52.12889,-0.23047 h 18.4121 c 4.18003,0 7.5112,1.32022 10.21094,4.00196 l 0.002,0.002 0.002,0.002 c 2.71693,2.66295 4.05078,5.94913 4.05078,10.08594 0,2.97013 -0.78042,5.46069 -2.34179,7.58984 -1.57528,2.1481 -3.67337,3.72161 -6.37695,4.75586 l -1.42969,0.54688 1.07812,1.08398 c 6.50418,6.5436 14.56637,9.85352 23.97266,9.85352 6.65672,0 11.7058,-1.1351 15.26758,-3.45703 l 2.68359,4.71093 c -1.69242,1.22054 -3.96706,2.2575 -7.06055,2.97266 h -0.002 c -3.47387,0.80744 -7.10122,1.21094 -10.88867,1.21094 -6.15676,0 -12.11414,-1.29155 -17.90625,-3.88672 -5.77235,-2.6055 -10.75688,-6.44761 -14.98633,-11.56055 l -0.29883,-0.35937 h -8.31835 v 14.79883 h -6.07031 z m 85.96288,-0.3457 c 1.87343,0 3.66363,0.23845 5.37891,0.71289 l 0.006,0.002 0.006,0.002 c 1.73053,0.4554 3.29109,1.13375 4.69727,2.03515 h 0.002 l 0.004,0.002 c 1.37395,0.86959 2.45656,2.03658 3.28516,3.55273 l 0.004,0.004 0.002,0.004 c 0.68254,1.22289 1.01542,2.61718 1.14062,4.13477 h -6.86719 c -0.29947,-1.26354 -0.98595,-2.42962 -2.21484,-3.30078 -1.53849,-1.10391 -3.39103,-1.65235 -5.44336,-1.65235 -1.85519,0 -3.59084,0.47338 -5.12695,1.41211 -1.57397,0.96187 -2.54883,2.40413 -2.54883,4.04688 0,1.62248 1.11572,3.00451 2.85742,4.0957 l 0.004,0.004 0.004,0.002 c 1.65979,1.01987 3.63192,1.96495 5.92188,2.8457 2.21598,0.85231 4.4329,1.8275 6.65234,2.92774 l 0.006,0.002 0.004,0.002 c 2.13805,1.03279 3.9444,2.46126 5.44922,4.31055 v 0.002 l 0.002,0.002 c 1.45311,1.76824 2.16406,3.79185 2.16406,6.2207 0,3.58274 -1.4095,6.35566 -4.41211,8.6211 l -0.002,0.002 c -3.00561,2.28137 -6.62146,3.42578 -10.97461,3.42578 -4.26377,0 -7.72661,-1.30166 -10.58008,-3.9375 l -0.002,-0.002 c -2.60399,-2.42359 -3.92811,-5.40883 -4.14258,-9.07227 h 6.8418 c 0.21944,1.65145 0.84098,3.20572 2.0625,4.49805 l 0.002,0.002 0.004,0.004 c 1.55189,1.6184 3.76196,2.4082 6.39062,2.4082 2.37636,0 4.34909,-0.47444 5.8418,-1.53516 l 0.002,-0.002 c 1.49663,-1.05091 2.34961,-2.63071 2.34961,-4.41211 0,-1.79271 -1.06933,-3.37362 -2.83398,-4.54297 -1.67216,-1.10805 -3.66141,-2.07962 -5.96289,-2.92578 l -0.004,-0.002 c -2.20096,-0.81598 -4.4244,-1.72776 -6.66602,-2.73438 l -0.004,-0.002 c -10e-4,-6.1e-4 -0.003,-0.001 -0.004,-0.002 -2.13049,-0.97638 -3.92817,-2.35541 -5.42773,-4.16211 -1.44913,-1.76495 -2.16211,-3.80494 -2.16211,-6.27344 0,-3.13916 1.23874,-5.58076 3.90039,-7.61719 v -0.002 c 2.68277,-2.05679 6.10549,-3.10547 10.39453,-3.10547 z"
         inkscape:export-xdpi="1000"
         inkscape:export-ydpi="1000" /></g><text
       xml:space="preserve"
       style="font-size:43.8239px;line-height:1.25;font-family:sans-serif;text-align:center;text-anchor:middle;fill:#0a1628;fill-opacity:1;stroke-width:0.264583"
       x="169.95795"
       y="257.19366"
       id="text2"><tspan
         sodipodi:role="line"
         id="tspan1"
         style="font-style:normal;font-variant:normal;font-weight:normal;font-stretch:normal;font-family:'Diary Writing Demo';-inkscape-font-specification:'Diary Writing Demo';fill:#0a1628;fill-opacity:1;stroke-width:0.264583"
         x="169.95795"
         y="257.19366">Design</tspan></text></g></svg>
